<?xml version="1.0" encoding="utf-8" standalone="no"?>
<!DOCTYPE svg PUBLIC "-//W3C//DTD SVG 1.1//EN"
  "http://www.w3.org/Graphics/SVG/1.1/DTD/svg11.dtd">
<!-- Created with matplotlib (https://matplotlib.org/) -->
<svg height="432pt" version="1.1" viewBox="0 0 864 432" width="864pt" xmlns="http://www.w3.org/2000/svg" xmlns:xlink="http://www.w3.org/1999/xlink">
 <metadata>
  <rdf:RDF xmlns:cc="http://creativecommons.org/ns#" xmlns:dc="http://purl.org/dc/elements/1.1/" xmlns:rdf="http://www.w3.org/1999/02/22-rdf-syntax-ns#">
   <cc:Work>
    <dc:type rdf:resource="http://purl.org/dc/dcmitype/StillImage"/>
    <dc:date>2024-10-28T09:43:15.490369</dc:date>
    <dc:format>image/svg+xml</dc:format>
    <dc:creator>
     <cc:Agent>
      <dc:title>Matplotlib v3.3.3, https://matplotlib.org/</dc:title>
     </cc:Agent>
    </dc:creator>
   </cc:Work>
  </rdf:RDF>
 </metadata>
 <defs>
  <style type="text/css">*{stroke-linecap:butt;stroke-linejoin:round;}</style>
 </defs>
 <g id="figure_1">
  <g id="patch_1">
   <path d="M 0 432 
L 864 432 
L 864 0 
L 0 0 
z
" style="fill:none;"/>
  </g>
  <g id="axes_1">
   <g id="patch_2">
    <path d="M 47.3 361.313147 
L 853.2 361.313147 
L 853.2 25.92 
L 47.3 25.92 
z
" style="fill:#ffffff;"/>
   </g>
   <g id="patch_3">
    <path clip-path="url(#pa906a1136a)" d="M 55.359 229.372383 
L 119.831 229.372383 
L 119.831 179.495384 
L 55.359 179.495384 
L 55.359 229.372383 
z
" style="fill:#9fc1d6;stroke:#262626;stroke-linejoin:miter;stroke-width:1.5;"/>
   </g>
   <g id="patch_4">
    <path clip-path="url(#pa906a1136a)" d="M 135.949 231.950958 
L 200.421 231.950958 
L 200.421 173.102089 
L 135.949 173.102089 
L 135.949 231.950958 
z
" style="fill:#8cb3cd;stroke:#262626;stroke-linejoin:miter;stroke-width:1.5;"/>
   </g>
   <g id="patch_5">
    <path clip-path="url(#pa906a1136a)" d="M 216.539 235.789167 
L 281.011 235.789167 
L 281.011 190.850421 
L 216.539 190.850421 
L 216.539 235.789167 
z
" style="fill:#79a6c5;stroke:#262626;stroke-linejoin:miter;stroke-width:1.5;"/>
   </g>
   <g id="patch_6">
    <path clip-path="url(#pa906a1136a)" d="M 297.129 234.23838 
L 361.601 234.23838 
L 361.601 187.238397 
L 297.129 187.238397 
L 297.129 234.23838 
z
" style="fill:#6598bc;stroke:#262626;stroke-linejoin:miter;stroke-width:1.5;"/>
   </g>
   <g id="patch_7">
    <path clip-path="url(#pa906a1136a)" d="M 377.719 232.116045 
L 442.191 232.116045 
L 442.191 185.1528 
L 377.719 185.1528 
L 377.719 232.116045 
z
" style="fill:#528bb3;stroke:#262626;stroke-linejoin:miter;stroke-width:1.5;"/>
   </g>
   <g id="patch_8">
    <path clip-path="url(#pa906a1136a)" d="M 458.309 232.624874 
L 522.781 232.624874 
L 522.781 181.226937 
L 458.309 181.226937 
L 458.309 232.624874 
z
" style="fill:#467da4;stroke:#262626;stroke-linejoin:miter;stroke-width:1.5;"/>
   </g>
   <g id="patch_9">
    <path clip-path="url(#pa906a1136a)" d="M 538.899 221.580919 
L 603.371 221.580919 
L 603.371 162.323592 
L 538.899 162.323592 
L 538.899 221.580919 
z
" style="fill:#426e8e;stroke:#262626;stroke-linejoin:miter;stroke-width:1.5;"/>
   </g>
   <g id="patch_10">
    <path clip-path="url(#pa906a1136a)" d="M 619.489 233.852895 
L 683.961 233.852895 
L 683.961 140.89368 
L 619.489 140.89368 
L 619.489 233.852895 
z
" style="fill:#3e5f76;stroke:#262626;stroke-linejoin:miter;stroke-width:1.5;"/>
   </g>
   <g id="patch_11">
    <path clip-path="url(#pa906a1136a)" d="M 700.079 221.737099 
L 764.551 221.737099 
L 764.551 112.515505 
L 700.079 112.515505 
L 700.079 221.737099 
z
" style="fill:#3b5060;stroke:#262626;stroke-linejoin:miter;stroke-width:1.5;"/>
   </g>
   <g id="patch_12">
    <path clip-path="url(#pa906a1136a)" d="M 780.669 157.990534 
L 845.141 157.990534 
L 845.141 41.165143 
L 780.669 41.165143 
L 780.669 157.990534 
z
" style="fill:#374249;stroke:#262626;stroke-linejoin:miter;stroke-width:1.5;"/>
   </g>
   <g id="matplotlib.axis_1">
    <g id="xtick_1">
     <g id="line2d_1">
      <defs>
       <path d="M 0 0 
L 0 3.5 
" id="m7ae9b88fae" style="stroke:#000000;stroke-width:0.8;"/>
      </defs>
      <g>
       <use style="stroke:#000000;stroke-width:0.8;" x="87.595" xlink:href="#m7ae9b88fae" y="361.313147"/>
      </g>
     </g>
     <g id="text_1">
      <!-- [0.0, 0.1) -->
      <g transform="translate(73.29487 406.188659)rotate(-45)scale(0.1 -0.1)">
       <defs>
        <path d="M 8.59375 75.984375 
L 29.296875 75.984375 
L 29.296875 69 
L 17.578125 69 
L 17.578125 -6.203125 
L 29.296875 -6.203125 
L 29.296875 -13.1875 
L 8.59375 -13.1875 
z
" id="DejaVuSans-91"/>
        <path d="M 31.78125 66.40625 
Q 24.171875 66.40625 20.328125 58.90625 
Q 16.5 51.421875 16.5 36.375 
Q 16.5 21.390625 20.328125 13.890625 
Q 24.171875 6.390625 31.78125 6.390625 
Q 39.453125 6.390625 43.28125 13.890625 
Q 47.125 21.390625 47.125 36.375 
Q 47.125 51.421875 43.28125 58.90625 
Q 39.453125 66.40625 31.78125 66.40625 
z
M 31.78125 74.21875 
Q 44.046875 74.21875 50.515625 64.515625 
Q 56.984375 54.828125 56.984375 36.375 
Q 56.984375 17.96875 50.515625 8.265625 
Q 44.046875 -1.421875 31.78125 -1.421875 
Q 19.53125 -1.421875 13.0625 8.265625 
Q 6.59375 17.96875 6.59375 36.375 
Q 6.59375 54.828125 13.0625 64.515625 
Q 19.53125 74.21875 31.78125 74.21875 
z
" id="DejaVuSans-48"/>
        <path d="M 10.6875 12.40625 
L 21 12.40625 
L 21 0 
L 10.6875 0 
z
" id="DejaVuSans-46"/>
        <path d="M 11.71875 12.40625 
L 22.015625 12.40625 
L 22.015625 4 
L 14.015625 -11.625 
L 7.71875 -11.625 
L 11.71875 4 
z
" id="DejaVuSans-44"/>
        <path id="DejaVuSans-32"/>
        <path d="M 12.40625 8.296875 
L 28.515625 8.296875 
L 28.515625 63.921875 
L 10.984375 60.40625 
L 10.984375 69.390625 
L 28.421875 72.90625 
L 38.28125 72.90625 
L 38.28125 8.296875 
L 54.390625 8.296875 
L 54.390625 0 
L 12.40625 0 
z
" id="DejaVuSans-49"/>
        <path d="M 8.015625 75.875 
L 15.828125 75.875 
Q 23.140625 64.359375 26.78125 53.3125 
Q 30.421875 42.28125 30.421875 31.390625 
Q 30.421875 20.453125 26.78125 9.375 
Q 23.140625 -1.703125 15.828125 -13.1875 
L 8.015625 -13.1875 
Q 14.5 -2 17.703125 9.0625 
Q 20.90625 20.125 20.90625 31.390625 
Q 20.90625 42.671875 17.703125 53.65625 
Q 14.5 64.65625 8.015625 75.875 
z
" id="DejaVuSans-41"/>
       </defs>
       <use xlink:href="#DejaVuSans-91"/>
       <use x="39.013672" xlink:href="#DejaVuSans-48"/>
       <use x="102.636719" xlink:href="#DejaVuSans-46"/>
       <use x="134.423828" xlink:href="#DejaVuSans-48"/>
       <use x="198.046875" xlink:href="#DejaVuSans-44"/>
       <use x="229.833984" xlink:href="#DejaVuSans-32"/>
       <use x="261.621094" xlink:href="#DejaVuSans-48"/>
       <use x="325.244141" xlink:href="#DejaVuSans-46"/>
       <use x="357.03125" xlink:href="#DejaVuSans-49"/>
       <use x="420.654297" xlink:href="#DejaVuSans-41"/>
      </g>
     </g>
    </g>
    <g id="xtick_2">
     <g id="line2d_2">
      <g>
       <use style="stroke:#000000;stroke-width:0.8;" x="168.185" xlink:href="#m7ae9b88fae" y="361.313147"/>
      </g>
     </g>
     <g id="text_2">
      <!-- [0.1, 0.2) -->
      <g transform="translate(153.88487 406.188659)rotate(-45)scale(0.1 -0.1)">
       <defs>
        <path d="M 19.1875 8.296875 
L 53.609375 8.296875 
L 53.609375 0 
L 7.328125 0 
L 7.328125 8.296875 
Q 12.9375 14.109375 22.625 23.890625 
Q 32.328125 33.6875 34.8125 36.53125 
Q 39.546875 41.84375 41.421875 45.53125 
Q 43.3125 49.21875 43.3125 52.78125 
Q 43.3125 58.59375 39.234375 62.25 
Q 35.15625 65.921875 28.609375 65.921875 
Q 23.96875 65.921875 18.8125 64.3125 
Q 13.671875 62.703125 7.8125 59.421875 
L 7.8125 69.390625 
Q 13.765625 71.78125 18.9375 73 
Q 24.125 74.21875 28.421875 74.21875 
Q 39.75 74.21875 46.484375 68.546875 
Q 53.21875 62.890625 53.21875 53.421875 
Q 53.21875 48.921875 51.53125 44.890625 
Q 49.859375 40.875 45.40625 35.40625 
Q 44.1875 33.984375 37.640625 27.21875 
Q 31.109375 20.453125 19.1875 8.296875 
z
" id="DejaVuSans-50"/>
       </defs>
       <use xlink:href="#DejaVuSans-91"/>
       <use x="39.013672" xlink:href="#DejaVuSans-48"/>
       <use x="102.636719" xlink:href="#DejaVuSans-46"/>
       <use x="134.423828" xlink:href="#DejaVuSans-49"/>
       <use x="198.046875" xlink:href="#DejaVuSans-44"/>
       <use x="229.833984" xlink:href="#DejaVuSans-32"/>
       <use x="261.621094" xlink:href="#DejaVuSans-48"/>
       <use x="325.244141" xlink:href="#DejaVuSans-46"/>
       <use x="357.03125" xlink:href="#DejaVuSans-50"/>
       <use x="420.654297" xlink:href="#DejaVuSans-41"/>
      </g>
     </g>
    </g>
    <g id="xtick_3">
     <g id="line2d_3">
      <g>
       <use style="stroke:#000000;stroke-width:0.8;" x="248.775" xlink:href="#m7ae9b88fae" y="361.313147"/>
      </g>
     </g>
     <g id="text_3">
      <!-- [0.2, 0.3) -->
      <g transform="translate(234.47487 406.188659)rotate(-45)scale(0.1 -0.1)">
       <defs>
        <path d="M 40.578125 39.3125 
Q 47.65625 37.796875 51.625 33 
Q 55.609375 28.21875 55.609375 21.1875 
Q 55.609375 10.40625 48.1875 4.484375 
Q 40.765625 -1.421875 27.09375 -1.421875 
Q 22.515625 -1.421875 17.65625 -0.515625 
Q 12.796875 0.390625 7.625 2.203125 
L 7.625 11.71875 
Q 11.71875 9.328125 16.59375 8.109375 
Q 21.484375 6.890625 26.8125 6.890625 
Q 36.078125 6.890625 40.9375 10.546875 
Q 45.796875 14.203125 45.796875 21.1875 
Q 45.796875 27.640625 41.28125 31.265625 
Q 36.765625 34.90625 28.71875 34.90625 
L 20.21875 34.90625 
L 20.21875 43.015625 
L 29.109375 43.015625 
Q 36.375 43.015625 40.234375 45.921875 
Q 44.09375 48.828125 44.09375 54.296875 
Q 44.09375 59.90625 40.109375 62.90625 
Q 36.140625 65.921875 28.71875 65.921875 
Q 24.65625 65.921875 20.015625 65.03125 
Q 15.375 64.15625 9.8125 62.3125 
L 9.8125 71.09375 
Q 15.4375 72.65625 20.34375 73.4375 
Q 25.25 74.21875 29.59375 74.21875 
Q 40.828125 74.21875 47.359375 69.109375 
Q 53.90625 64.015625 53.90625 55.328125 
Q 53.90625 49.265625 50.4375 45.09375 
Q 46.96875 40.921875 40.578125 39.3125 
z
" id="DejaVuSans-51"/>
       </defs>
       <use xlink:href="#DejaVuSans-91"/>
       <use x="39.013672" xlink:href="#DejaVuSans-48"/>
       <use x="102.636719" xlink:href="#DejaVuSans-46"/>
       <use x="134.423828" xlink:href="#DejaVuSans-50"/>
       <use x="198.046875" xlink:href="#DejaVuSans-44"/>
       <use x="229.833984" xlink:href="#DejaVuSans-32"/>
       <use x="261.621094" xlink:href="#DejaVuSans-48"/>
       <use x="325.244141" xlink:href="#DejaVuSans-46"/>
       <use x="357.03125" xlink:href="#DejaVuSans-51"/>
       <use x="420.654297" xlink:href="#DejaVuSans-41"/>
      </g>
     </g>
    </g>
    <g id="xtick_4">
     <g id="line2d_4">
      <g>
       <use style="stroke:#000000;stroke-width:0.8;" x="329.365" xlink:href="#m7ae9b88fae" y="361.313147"/>
      </g>
     </g>
     <g id="text_4">
      <!-- [0.3, 0.4) -->
      <g transform="translate(315.06487 406.188659)rotate(-45)scale(0.1 -0.1)">
       <defs>
        <path d="M 37.796875 64.3125 
L 12.890625 25.390625 
L 37.796875 25.390625 
z
M 35.203125 72.90625 
L 47.609375 72.90625 
L 47.609375 25.390625 
L 58.015625 25.390625 
L 58.015625 17.1875 
L 47.609375 17.1875 
L 47.609375 0 
L 37.796875 0 
L 37.796875 17.1875 
L 4.890625 17.1875 
L 4.890625 26.703125 
z
" id="DejaVuSans-52"/>
       </defs>
       <use xlink:href="#DejaVuSans-91"/>
       <use x="39.013672" xlink:href="#DejaVuSans-48"/>
       <use x="102.636719" xlink:href="#DejaVuSans-46"/>
       <use x="134.423828" xlink:href="#DejaVuSans-51"/>
       <use x="198.046875" xlink:href="#DejaVuSans-44"/>
       <use x="229.833984" xlink:href="#DejaVuSans-32"/>
       <use x="261.621094" xlink:href="#DejaVuSans-48"/>
       <use x="325.244141" xlink:href="#DejaVuSans-46"/>
       <use x="357.03125" xlink:href="#DejaVuSans-52"/>
       <use x="420.654297" xlink:href="#DejaVuSans-41"/>
      </g>
     </g>
    </g>
    <g id="xtick_5">
     <g id="line2d_5">
      <g>
       <use style="stroke:#000000;stroke-width:0.8;" x="409.955" xlink:href="#m7ae9b88fae" y="361.313147"/>
      </g>
     </g>
     <g id="text_5">
      <!-- [0.4, 0.5) -->
      <g transform="translate(395.65487 406.188659)rotate(-45)scale(0.1 -0.1)">
       <defs>
        <path d="M 10.796875 72.90625 
L 49.515625 72.90625 
L 49.515625 64.59375 
L 19.828125 64.59375 
L 19.828125 46.734375 
Q 21.96875 47.46875 24.109375 47.828125 
Q 26.265625 48.1875 28.421875 48.1875 
Q 40.625 48.1875 47.75 41.5 
Q 54.890625 34.8125 54.890625 23.390625 
Q 54.890625 11.625 47.5625 5.09375 
Q 40.234375 -1.421875 26.90625 -1.421875 
Q 22.3125 -1.421875 17.546875 -0.640625 
Q 12.796875 0.140625 7.71875 1.703125 
L 7.71875 11.625 
Q 12.109375 9.234375 16.796875 8.0625 
Q 21.484375 6.890625 26.703125 6.890625 
Q 35.15625 6.890625 40.078125 11.328125 
Q 45.015625 15.765625 45.015625 23.390625 
Q 45.015625 31 40.078125 35.4375 
Q 35.15625 39.890625 26.703125 39.890625 
Q 22.75 39.890625 18.8125 39.015625 
Q 14.890625 38.140625 10.796875 36.28125 
z
" id="DejaVuSans-53"/>
       </defs>
       <use xlink:href="#DejaVuSans-91"/>
       <use x="39.013672" xlink:href="#DejaVuSans-48"/>
       <use x="102.636719" xlink:href="#DejaVuSans-46"/>
       <use x="134.423828" xlink:href="#DejaVuSans-52"/>
       <use x="198.046875" xlink:href="#DejaVuSans-44"/>
       <use x="229.833984" xlink:href="#DejaVuSans-32"/>
       <use x="261.621094" xlink:href="#DejaVuSans-48"/>
       <use x="325.244141" xlink:href="#DejaVuSans-46"/>
       <use x="357.03125" xlink:href="#DejaVuSans-53"/>
       <use x="420.654297" xlink:href="#DejaVuSans-41"/>
      </g>
     </g>
    </g>
    <g id="xtick_6">
     <g id="line2d_6">
      <g>
       <use style="stroke:#000000;stroke-width:0.8;" x="490.545" xlink:href="#m7ae9b88fae" y="361.313147"/>
      </g>
     </g>
     <g id="text_6">
      <!-- [0.5, 0.6) -->
      <g transform="translate(476.24487 406.188659)rotate(-45)scale(0.1 -0.1)">
       <defs>
        <path d="M 33.015625 40.375 
Q 26.375 40.375 22.484375 35.828125 
Q 18.609375 31.296875 18.609375 23.390625 
Q 18.609375 15.53125 22.484375 10.953125 
Q 26.375 6.390625 33.015625 6.390625 
Q 39.65625 6.390625 43.53125 10.953125 
Q 47.40625 15.53125 47.40625 23.390625 
Q 47.40625 31.296875 43.53125 35.828125 
Q 39.65625 40.375 33.015625 40.375 
z
M 52.59375 71.296875 
L 52.59375 62.3125 
Q 48.875 64.0625 45.09375 64.984375 
Q 41.3125 65.921875 37.59375 65.921875 
Q 27.828125 65.921875 22.671875 59.328125 
Q 17.53125 52.734375 16.796875 39.40625 
Q 19.671875 43.65625 24.015625 45.921875 
Q 28.375 48.1875 33.59375 48.1875 
Q 44.578125 48.1875 50.953125 41.515625 
Q 57.328125 34.859375 57.328125 23.390625 
Q 57.328125 12.15625 50.6875 5.359375 
Q 44.046875 -1.421875 33.015625 -1.421875 
Q 20.359375 -1.421875 13.671875 8.265625 
Q 6.984375 17.96875 6.984375 36.375 
Q 6.984375 53.65625 15.1875 63.9375 
Q 23.390625 74.21875 37.203125 74.21875 
Q 40.921875 74.21875 44.703125 73.484375 
Q 48.484375 72.75 52.59375 71.296875 
z
" id="DejaVuSans-54"/>
       </defs>
       <use xlink:href="#DejaVuSans-91"/>
       <use x="39.013672" xlink:href="#DejaVuSans-48"/>
       <use x="102.636719" xlink:href="#DejaVuSans-46"/>
       <use x="134.423828" xlink:href="#DejaVuSans-53"/>
       <use x="198.046875" xlink:href="#DejaVuSans-44"/>
       <use x="229.833984" xlink:href="#DejaVuSans-32"/>
       <use x="261.621094" xlink:href="#DejaVuSans-48"/>
       <use x="325.244141" xlink:href="#DejaVuSans-46"/>
       <use x="357.03125" xlink:href="#DejaVuSans-54"/>
       <use x="420.654297" xlink:href="#DejaVuSans-41"/>
      </g>
     </g>
    </g>
    <g id="xtick_7">
     <g id="line2d_7">
      <g>
       <use style="stroke:#000000;stroke-width:0.8;" x="571.135" xlink:href="#m7ae9b88fae" y="361.313147"/>
      </g>
     </g>
     <g id="text_7">
      <!-- [0.6, 0.7) -->
      <g transform="translate(556.83487 406.188659)rotate(-45)scale(0.1 -0.1)">
       <defs>
        <path d="M 8.203125 72.90625 
L 55.078125 72.90625 
L 55.078125 68.703125 
L 28.609375 0 
L 18.3125 0 
L 43.21875 64.59375 
L 8.203125 64.59375 
z
" id="DejaVuSans-55"/>
       </defs>
       <use xlink:href="#DejaVuSans-91"/>
       <use x="39.013672" xlink:href="#DejaVuSans-48"/>
       <use x="102.636719" xlink:href="#DejaVuSans-46"/>
       <use x="134.423828" xlink:href="#DejaVuSans-54"/>
       <use x="198.046875" xlink:href="#DejaVuSans-44"/>
       <use x="229.833984" xlink:href="#DejaVuSans-32"/>
       <use x="261.621094" xlink:href="#DejaVuSans-48"/>
       <use x="325.244141" xlink:href="#DejaVuSans-46"/>
       <use x="357.03125" xlink:href="#DejaVuSans-55"/>
       <use x="420.654297" xlink:href="#DejaVuSans-41"/>
      </g>
     </g>
    </g>
    <g id="xtick_8">
     <g id="line2d_8">
      <g>
       <use style="stroke:#000000;stroke-width:0.8;" x="651.725" xlink:href="#m7ae9b88fae" y="361.313147"/>
      </g>
     </g>
     <g id="text_8">
      <!-- [0.7, 0.8) -->
      <g transform="translate(637.42487 406.188659)rotate(-45)scale(0.1 -0.1)">
       <defs>
        <path d="M 31.78125 34.625 
Q 24.75 34.625 20.71875 30.859375 
Q 16.703125 27.09375 16.703125 20.515625 
Q 16.703125 13.921875 20.71875 10.15625 
Q 24.75 6.390625 31.78125 6.390625 
Q 38.8125 6.390625 42.859375 10.171875 
Q 46.921875 13.96875 46.921875 20.515625 
Q 46.921875 27.09375 42.890625 30.859375 
Q 38.875 34.625 31.78125 34.625 
z
M 21.921875 38.8125 
Q 15.578125 40.375 12.03125 44.71875 
Q 8.5 49.078125 8.5 55.328125 
Q 8.5 64.0625 14.71875 69.140625 
Q 20.953125 74.21875 31.78125 74.21875 
Q 42.671875 74.21875 48.875 69.140625 
Q 55.078125 64.0625 55.078125 55.328125 
Q 55.078125 49.078125 51.53125 44.71875 
Q 48 40.375 41.703125 38.8125 
Q 48.828125 37.15625 52.796875 32.3125 
Q 56.78125 27.484375 56.78125 20.515625 
Q 56.78125 9.90625 50.3125 4.234375 
Q 43.84375 -1.421875 31.78125 -1.421875 
Q 19.734375 -1.421875 13.25 4.234375 
Q 6.78125 9.90625 6.78125 20.515625 
Q 6.78125 27.484375 10.78125 32.3125 
Q 14.796875 37.15625 21.921875 38.8125 
z
M 18.3125 54.390625 
Q 18.3125 48.734375 21.84375 45.5625 
Q 25.390625 42.390625 31.78125 42.390625 
Q 38.140625 42.390625 41.71875 45.5625 
Q 45.3125 48.734375 45.3125 54.390625 
Q 45.3125 60.0625 41.71875 63.234375 
Q 38.140625 66.40625 31.78125 66.40625 
Q 25.390625 66.40625 21.84375 63.234375 
Q 18.3125 60.0625 18.3125 54.390625 
z
" id="DejaVuSans-56"/>
       </defs>
       <use xlink:href="#DejaVuSans-91"/>
       <use x="39.013672" xlink:href="#DejaVuSans-48"/>
       <use x="102.636719" xlink:href="#DejaVuSans-46"/>
       <use x="134.423828" xlink:href="#DejaVuSans-55"/>
       <use x="198.046875" xlink:href="#DejaVuSans-44"/>
       <use x="229.833984" xlink:href="#DejaVuSans-32"/>
       <use x="261.621094" xlink:href="#DejaVuSans-48"/>
       <use x="325.244141" xlink:href="#DejaVuSans-46"/>
       <use x="357.03125" xlink:href="#DejaVuSans-56"/>
       <use x="420.654297" xlink:href="#DejaVuSans-41"/>
      </g>
     </g>
    </g>
    <g id="xtick_9">
     <g id="line2d_9">
      <g>
       <use style="stroke:#000000;stroke-width:0.8;" x="732.315" xlink:href="#m7ae9b88fae" y="361.313147"/>
      </g>
     </g>
     <g id="text_9">
      <!-- [0.8, 0.9) -->
      <g transform="translate(718.01487 406.188659)rotate(-45)scale(0.1 -0.1)">
       <defs>
        <path d="M 10.984375 1.515625 
L 10.984375 10.5 
Q 14.703125 8.734375 18.5 7.8125 
Q 22.3125 6.890625 25.984375 6.890625 
Q 35.75 6.890625 40.890625 13.453125 
Q 46.046875 20.015625 46.78125 33.40625 
Q 43.953125 29.203125 39.59375 26.953125 
Q 35.25 24.703125 29.984375 24.703125 
Q 19.046875 24.703125 12.671875 31.3125 
Q 6.296875 37.9375 6.296875 49.421875 
Q 6.296875 60.640625 12.9375 67.421875 
Q 19.578125 74.21875 30.609375 74.21875 
Q 43.265625 74.21875 49.921875 64.515625 
Q 56.59375 54.828125 56.59375 36.375 
Q 56.59375 19.140625 48.40625 8.859375 
Q 40.234375 -1.421875 26.421875 -1.421875 
Q 22.703125 -1.421875 18.890625 -0.6875 
Q 15.09375 0.046875 10.984375 1.515625 
z
M 30.609375 32.421875 
Q 37.25 32.421875 41.125 36.953125 
Q 45.015625 41.5 45.015625 49.421875 
Q 45.015625 57.28125 41.125 61.84375 
Q 37.25 66.40625 30.609375 66.40625 
Q 23.96875 66.40625 20.09375 61.84375 
Q 16.21875 57.28125 16.21875 49.421875 
Q 16.21875 41.5 20.09375 36.953125 
Q 23.96875 32.421875 30.609375 32.421875 
z
" id="DejaVuSans-57"/>
       </defs>
       <use xlink:href="#DejaVuSans-91"/>
       <use x="39.013672" xlink:href="#DejaVuSans-48"/>
       <use x="102.636719" xlink:href="#DejaVuSans-46"/>
       <use x="134.423828" xlink:href="#DejaVuSans-56"/>
       <use x="198.046875" xlink:href="#DejaVuSans-44"/>
       <use x="229.833984" xlink:href="#DejaVuSans-32"/>
       <use x="261.621094" xlink:href="#DejaVuSans-48"/>
       <use x="325.244141" xlink:href="#DejaVuSans-46"/>
       <use x="357.03125" xlink:href="#DejaVuSans-57"/>
       <use x="420.654297" xlink:href="#DejaVuSans-41"/>
      </g>
     </g>
    </g>
    <g id="xtick_10">
     <g id="line2d_10">
      <g>
       <use style="stroke:#000000;stroke-width:0.8;" x="812.905" xlink:href="#m7ae9b88fae" y="361.313147"/>
      </g>
     </g>
     <g id="text_10">
      <!-- [0.9, 1.0) -->
      <g transform="translate(798.60487 406.188659)rotate(-45)scale(0.1 -0.1)">
       <use xlink:href="#DejaVuSans-91"/>
       <use x="39.013672" xlink:href="#DejaVuSans-48"/>
       <use x="102.636719" xlink:href="#DejaVuSans-46"/>
       <use x="134.423828" xlink:href="#DejaVuSans-57"/>
       <use x="198.046875" xlink:href="#DejaVuSans-44"/>
       <use x="229.833984" xlink:href="#DejaVuSans-32"/>
       <use x="261.621094" xlink:href="#DejaVuSans-49"/>
       <use x="325.244141" xlink:href="#DejaVuSans-46"/>
       <use x="357.03125" xlink:href="#DejaVuSans-48"/>
       <use x="420.654297" xlink:href="#DejaVuSans-41"/>
      </g>
     </g>
    </g>
    <g id="text_11">
     <!-- Hit Score Bins (0.1 increments) -->
     <g transform="translate(372.328906 419.257658)scale(0.1 -0.1)">
      <defs>
       <path d="M 9.8125 72.90625 
L 19.671875 72.90625 
L 19.671875 43.015625 
L 55.515625 43.015625 
L 55.515625 72.90625 
L 65.375 72.90625 
L 65.375 0 
L 55.515625 0 
L 55.515625 34.71875 
L 19.671875 34.71875 
L 19.671875 0 
L 9.8125 0 
z
" id="DejaVuSans-72"/>
       <path d="M 9.421875 54.6875 
L 18.40625 54.6875 
L 18.40625 0 
L 9.421875 0 
z
M 9.421875 75.984375 
L 18.40625 75.984375 
L 18.40625 64.59375 
L 9.421875 64.59375 
z
" id="DejaVuSans-105"/>
       <path d="M 18.3125 70.21875 
L 18.3125 54.6875 
L 36.8125 54.6875 
L 36.8125 47.703125 
L 18.3125 47.703125 
L 18.3125 18.015625 
Q 18.3125 11.328125 20.140625 9.421875 
Q 21.96875 7.515625 27.59375 7.515625 
L 36.8125 7.515625 
L 36.8125 0 
L 27.59375 0 
Q 17.1875 0 13.234375 3.875 
Q 9.28125 7.765625 9.28125 18.015625 
L 9.28125 47.703125 
L 2.6875 47.703125 
L 2.6875 54.6875 
L 9.28125 54.6875 
L 9.28125 70.21875 
z
" id="DejaVuSans-116"/>
       <path d="M 53.515625 70.515625 
L 53.515625 60.890625 
Q 47.90625 63.578125 42.921875 64.890625 
Q 37.9375 66.21875 33.296875 66.21875 
Q 25.25 66.21875 20.875 63.09375 
Q 16.5 59.96875 16.5 54.203125 
Q 16.5 49.359375 19.40625 46.890625 
Q 22.3125 44.4375 30.421875 42.921875 
L 36.375 41.703125 
Q 47.40625 39.59375 52.65625 34.296875 
Q 57.90625 29 57.90625 20.125 
Q 57.90625 9.515625 50.796875 4.046875 
Q 43.703125 -1.421875 29.984375 -1.421875 
Q 24.8125 -1.421875 18.96875 -0.25 
Q 13.140625 0.921875 6.890625 3.21875 
L 6.890625 13.375 
Q 12.890625 10.015625 18.65625 8.296875 
Q 24.421875 6.59375 29.984375 6.59375 
Q 38.421875 6.59375 43.015625 9.90625 
Q 47.609375 13.234375 47.609375 19.390625 
Q 47.609375 24.75 44.3125 27.78125 
Q 41.015625 30.8125 33.5 32.328125 
L 27.484375 33.5 
Q 16.453125 35.6875 11.515625 40.375 
Q 6.59375 45.0625 6.59375 53.421875 
Q 6.59375 63.09375 13.40625 68.65625 
Q 20.21875 74.21875 32.171875 74.21875 
Q 37.3125 74.21875 42.625 73.28125 
Q 47.953125 72.359375 53.515625 70.515625 
z
" id="DejaVuSans-83"/>
       <path d="M 48.78125 52.59375 
L 48.78125 44.1875 
Q 44.96875 46.296875 41.140625 47.34375 
Q 37.3125 48.390625 33.40625 48.390625 
Q 24.65625 48.390625 19.8125 42.84375 
Q 14.984375 37.3125 14.984375 27.296875 
Q 14.984375 17.28125 19.8125 11.734375 
Q 24.65625 6.203125 33.40625 6.203125 
Q 37.3125 6.203125 41.140625 7.25 
Q 44.96875 8.296875 48.78125 10.40625 
L 48.78125 2.09375 
Q 45.015625 0.34375 40.984375 -0.53125 
Q 36.96875 -1.421875 32.421875 -1.421875 
Q 20.0625 -1.421875 12.78125 6.34375 
Q 5.515625 14.109375 5.515625 27.296875 
Q 5.515625 40.671875 12.859375 48.328125 
Q 20.21875 56 33.015625 56 
Q 37.15625 56 41.109375 55.140625 
Q 45.0625 54.296875 48.78125 52.59375 
z
" id="DejaVuSans-99"/>
       <path d="M 30.609375 48.390625 
Q 23.390625 48.390625 19.1875 42.75 
Q 14.984375 37.109375 14.984375 27.296875 
Q 14.984375 17.484375 19.15625 11.84375 
Q 23.34375 6.203125 30.609375 6.203125 
Q 37.796875 6.203125 41.984375 11.859375 
Q 46.1875 17.53125 46.1875 27.296875 
Q 46.1875 37.015625 41.984375 42.703125 
Q 37.796875 48.390625 30.609375 48.390625 
z
M 30.609375 56 
Q 42.328125 56 49.015625 48.375 
Q 55.71875 40.765625 55.71875 27.296875 
Q 55.71875 13.875 49.015625 6.21875 
Q 42.328125 -1.421875 30.609375 -1.421875 
Q 18.84375 -1.421875 12.171875 6.21875 
Q 5.515625 13.875 5.515625 27.296875 
Q 5.515625 40.765625 12.171875 48.375 
Q 18.84375 56 30.609375 56 
z
" id="DejaVuSans-111"/>
       <path d="M 41.109375 46.296875 
Q 39.59375 47.171875 37.8125 47.578125 
Q 36.03125 48 33.890625 48 
Q 26.265625 48 22.1875 43.046875 
Q 18.109375 38.09375 18.109375 28.8125 
L 18.109375 0 
L 9.078125 0 
L 9.078125 54.6875 
L 18.109375 54.6875 
L 18.109375 46.1875 
Q 20.953125 51.171875 25.484375 53.578125 
Q 30.03125 56 36.53125 56 
Q 37.453125 56 38.578125 55.875 
Q 39.703125 55.765625 41.0625 55.515625 
z
" id="DejaVuSans-114"/>
       <path d="M 56.203125 29.59375 
L 56.203125 25.203125 
L 14.890625 25.203125 
Q 15.484375 15.921875 20.484375 11.0625 
Q 25.484375 6.203125 34.421875 6.203125 
Q 39.59375 6.203125 44.453125 7.46875 
Q 49.3125 8.734375 54.109375 11.28125 
L 54.109375 2.78125 
Q 49.265625 0.734375 44.1875 -0.34375 
Q 39.109375 -1.421875 33.890625 -1.421875 
Q 20.796875 -1.421875 13.15625 6.1875 
Q 5.515625 13.8125 5.515625 26.8125 
Q 5.515625 40.234375 12.765625 48.109375 
Q 20.015625 56 32.328125 56 
Q 43.359375 56 49.78125 48.890625 
Q 56.203125 41.796875 56.203125 29.59375 
z
M 47.21875 32.234375 
Q 47.125 39.59375 43.09375 43.984375 
Q 39.0625 48.390625 32.421875 48.390625 
Q 24.90625 48.390625 20.390625 44.140625 
Q 15.875 39.890625 15.1875 32.171875 
z
" id="DejaVuSans-101"/>
       <path d="M 19.671875 34.8125 
L 19.671875 8.109375 
L 35.5 8.109375 
Q 43.453125 8.109375 47.28125 11.40625 
Q 51.125 14.703125 51.125 21.484375 
Q 51.125 28.328125 47.28125 31.5625 
Q 43.453125 34.8125 35.5 34.8125 
z
M 19.671875 64.796875 
L 19.671875 42.828125 
L 34.28125 42.828125 
Q 41.5 42.828125 45.03125 45.53125 
Q 48.578125 48.25 48.578125 53.8125 
Q 48.578125 59.328125 45.03125 62.0625 
Q 41.5 64.796875 34.28125 64.796875 
z
M 9.8125 72.90625 
L 35.015625 72.90625 
Q 46.296875 72.90625 52.390625 68.21875 
Q 58.5 63.53125 58.5 54.890625 
Q 58.5 48.1875 55.375 44.234375 
Q 52.25 40.28125 46.1875 39.3125 
Q 53.46875 37.75 57.5 32.78125 
Q 61.53125 27.828125 61.53125 20.40625 
Q 61.53125 10.640625 54.890625 5.3125 
Q 48.25 0 35.984375 0 
L 9.8125 0 
z
" id="DejaVuSans-66"/>
       <path d="M 54.890625 33.015625 
L 54.890625 0 
L 45.90625 0 
L 45.90625 32.71875 
Q 45.90625 40.484375 42.875 44.328125 
Q 39.84375 48.1875 33.796875 48.1875 
Q 26.515625 48.1875 22.3125 43.546875 
Q 18.109375 38.921875 18.109375 30.90625 
L 18.109375 0 
L 9.078125 0 
L 9.078125 54.6875 
L 18.109375 54.6875 
L 18.109375 46.1875 
Q 21.34375 51.125 25.703125 53.5625 
Q 30.078125 56 35.796875 56 
Q 45.21875 56 50.046875 50.171875 
Q 54.890625 44.34375 54.890625 33.015625 
z
" id="DejaVuSans-110"/>
       <path d="M 44.28125 53.078125 
L 44.28125 44.578125 
Q 40.484375 46.53125 36.375 47.5 
Q 32.28125 48.484375 27.875 48.484375 
Q 21.1875 48.484375 17.84375 46.4375 
Q 14.5 44.390625 14.5 40.28125 
Q 14.5 37.15625 16.890625 35.375 
Q 19.28125 33.59375 26.515625 31.984375 
L 29.59375 31.296875 
Q 39.15625 29.25 43.1875 25.515625 
Q 47.21875 21.78125 47.21875 15.09375 
Q 47.21875 7.46875 41.1875 3.015625 
Q 35.15625 -1.421875 24.609375 -1.421875 
Q 20.21875 -1.421875 15.453125 -0.5625 
Q 10.6875 0.296875 5.421875 2 
L 5.421875 11.28125 
Q 10.40625 8.6875 15.234375 7.390625 
Q 20.0625 6.109375 24.8125 6.109375 
Q 31.15625 6.109375 34.5625 8.28125 
Q 37.984375 10.453125 37.984375 14.40625 
Q 37.984375 18.0625 35.515625 20.015625 
Q 33.0625 21.96875 24.703125 23.78125 
L 21.578125 24.515625 
Q 13.234375 26.265625 9.515625 29.90625 
Q 5.8125 33.546875 5.8125 39.890625 
Q 5.8125 47.609375 11.28125 51.796875 
Q 16.75 56 26.8125 56 
Q 31.78125 56 36.171875 55.265625 
Q 40.578125 54.546875 44.28125 53.078125 
z
" id="DejaVuSans-115"/>
       <path d="M 31 75.875 
Q 24.46875 64.65625 21.28125 53.65625 
Q 18.109375 42.671875 18.109375 31.390625 
Q 18.109375 20.125 21.3125 9.0625 
Q 24.515625 -2 31 -13.1875 
L 23.1875 -13.1875 
Q 15.875 -1.703125 12.234375 9.375 
Q 8.59375 20.453125 8.59375 31.390625 
Q 8.59375 42.28125 12.203125 53.3125 
Q 15.828125 64.359375 23.1875 75.875 
z
" id="DejaVuSans-40"/>
       <path d="M 52 44.1875 
Q 55.375 50.25 60.0625 53.125 
Q 64.75 56 71.09375 56 
Q 79.640625 56 84.28125 50.015625 
Q 88.921875 44.046875 88.921875 33.015625 
L 88.921875 0 
L 79.890625 0 
L 79.890625 32.71875 
Q 79.890625 40.578125 77.09375 44.375 
Q 74.3125 48.1875 68.609375 48.1875 
Q 61.625 48.1875 57.5625 43.546875 
Q 53.515625 38.921875 53.515625 30.90625 
L 53.515625 0 
L 44.484375 0 
L 44.484375 32.71875 
Q 44.484375 40.625 41.703125 44.40625 
Q 38.921875 48.1875 33.109375 48.1875 
Q 26.21875 48.1875 22.15625 43.53125 
Q 18.109375 38.875 18.109375 30.90625 
L 18.109375 0 
L 9.078125 0 
L 9.078125 54.6875 
L 18.109375 54.6875 
L 18.109375 46.1875 
Q 21.1875 51.21875 25.484375 53.609375 
Q 29.78125 56 35.6875 56 
Q 41.65625 56 45.828125 52.96875 
Q 50 49.953125 52 44.1875 
z
" id="DejaVuSans-109"/>
      </defs>
      <use xlink:href="#DejaVuSans-72"/>
      <use x="75.195312" xlink:href="#DejaVuSans-105"/>
      <use x="102.978516" xlink:href="#DejaVuSans-116"/>
      <use x="142.1875" xlink:href="#DejaVuSans-32"/>
      <use x="173.974609" xlink:href="#DejaVuSans-83"/>
      <use x="237.451172" xlink:href="#DejaVuSans-99"/>
      <use x="292.431641" xlink:href="#DejaVuSans-111"/>
      <use x="353.613281" xlink:href="#DejaVuSans-114"/>
      <use x="392.476562" xlink:href="#DejaVuSans-101"/>
      <use x="454" xlink:href="#DejaVuSans-32"/>
      <use x="485.787109" xlink:href="#DejaVuSans-66"/>
      <use x="554.390625" xlink:href="#DejaVuSans-105"/>
      <use x="582.173828" xlink:href="#DejaVuSans-110"/>
      <use x="645.552734" xlink:href="#DejaVuSans-115"/>
      <use x="697.652344" xlink:href="#DejaVuSans-32"/>
      <use x="729.439453" xlink:href="#DejaVuSans-40"/>
      <use x="768.453125" xlink:href="#DejaVuSans-48"/>
      <use x="832.076172" xlink:href="#DejaVuSans-46"/>
      <use x="863.863281" xlink:href="#DejaVuSans-49"/>
      <use x="927.486328" xlink:href="#DejaVuSans-32"/>
      <use x="959.273438" xlink:href="#DejaVuSans-105"/>
      <use x="987.056641" xlink:href="#DejaVuSans-110"/>
      <use x="1050.435547" xlink:href="#DejaVuSans-99"/>
      <use x="1105.416016" xlink:href="#DejaVuSans-114"/>
      <use x="1144.279297" xlink:href="#DejaVuSans-101"/>
      <use x="1205.802734" xlink:href="#DejaVuSans-109"/>
      <use x="1303.214844" xlink:href="#DejaVuSans-101"/>
      <use x="1364.738281" xlink:href="#DejaVuSans-110"/>
      <use x="1428.117188" xlink:href="#DejaVuSans-116"/>
      <use x="1467.326172" xlink:href="#DejaVuSans-115"/>
      <use x="1519.425781" xlink:href="#DejaVuSans-41"/>
     </g>
    </g>
   </g>
   <g id="matplotlib.axis_2">
    <g id="ytick_1">
     <g id="line2d_11">
      <defs>
       <path d="M 0 0 
L -3.5 0 
" id="me254be4f2a" style="stroke:#000000;stroke-width:0.8;"/>
      </defs>
      <g>
       <use style="stroke:#000000;stroke-width:0.8;" x="47.3" xlink:href="#me254be4f2a" y="351.066412"/>
      </g>
     </g>
     <g id="text_12">
      <!-- 0.0 -->
      <g transform="translate(24.396875 354.86563)scale(0.1 -0.1)">
       <use xlink:href="#DejaVuSans-48"/>
       <use x="63.623047" xlink:href="#DejaVuSans-46"/>
       <use x="95.410156" xlink:href="#DejaVuSans-48"/>
      </g>
     </g>
    </g>
    <g id="ytick_2">
     <g id="line2d_12">
      <g>
       <use style="stroke:#000000;stroke-width:0.8;" x="47.3" xlink:href="#me254be4f2a" y="289.086158"/>
      </g>
     </g>
     <g id="text_13">
      <!-- 0.2 -->
      <g transform="translate(24.396875 292.885377)scale(0.1 -0.1)">
       <use xlink:href="#DejaVuSans-48"/>
       <use x="63.623047" xlink:href="#DejaVuSans-46"/>
       <use x="95.410156" xlink:href="#DejaVuSans-50"/>
      </g>
     </g>
    </g>
    <g id="ytick_3">
     <g id="line2d_13">
      <g>
       <use style="stroke:#000000;stroke-width:0.8;" x="47.3" xlink:href="#me254be4f2a" y="227.105904"/>
      </g>
     </g>
     <g id="text_14">
      <!-- 0.4 -->
      <g transform="translate(24.396875 230.905123)scale(0.1 -0.1)">
       <use xlink:href="#DejaVuSans-48"/>
       <use x="63.623047" xlink:href="#DejaVuSans-46"/>
       <use x="95.410156" xlink:href="#DejaVuSans-52"/>
      </g>
     </g>
    </g>
    <g id="ytick_4">
     <g id="line2d_14">
      <g>
       <use style="stroke:#000000;stroke-width:0.8;" x="47.3" xlink:href="#me254be4f2a" y="165.125651"/>
      </g>
     </g>
     <g id="text_15">
      <!-- 0.6 -->
      <g transform="translate(24.396875 168.924869)scale(0.1 -0.1)">
       <use xlink:href="#DejaVuSans-48"/>
       <use x="63.623047" xlink:href="#DejaVuSans-46"/>
       <use x="95.410156" xlink:href="#DejaVuSans-54"/>
      </g>
     </g>
    </g>
    <g id="ytick_5">
     <g id="line2d_15">
      <g>
       <use style="stroke:#000000;stroke-width:0.8;" x="47.3" xlink:href="#me254be4f2a" y="103.145397"/>
      </g>
     </g>
     <g id="text_16">
      <!-- 0.8 -->
      <g transform="translate(24.396875 106.944616)scale(0.1 -0.1)">
       <use xlink:href="#DejaVuSans-48"/>
       <use x="63.623047" xlink:href="#DejaVuSans-46"/>
       <use x="95.410156" xlink:href="#DejaVuSans-56"/>
      </g>
     </g>
    </g>
    <g id="ytick_6">
     <g id="line2d_16">
      <g>
       <use style="stroke:#000000;stroke-width:0.8;" x="47.3" xlink:href="#me254be4f2a" y="41.165143"/>
      </g>
     </g>
     <g id="text_17">
      <!-- 1.0 -->
      <g transform="translate(24.396875 44.964362)scale(0.1 -0.1)">
       <use xlink:href="#DejaVuSans-49"/>
       <use x="63.623047" xlink:href="#DejaVuSans-46"/>
       <use x="95.410156" xlink:href="#DejaVuSans-48"/>
      </g>
     </g>
    </g>
    <g id="text_18">
     <!-- Tanimoto Similarity to Closest Training Hit -->
     <g transform="translate(18.317188 298.042355)rotate(-90)scale(0.1 -0.1)">
      <defs>
       <path d="M -0.296875 72.90625 
L 61.375 72.90625 
L 61.375 64.59375 
L 35.5 64.59375 
L 35.5 0 
L 25.59375 0 
L 25.59375 64.59375 
L -0.296875 64.59375 
z
" id="DejaVuSans-84"/>
       <path d="M 34.28125 27.484375 
Q 23.390625 27.484375 19.1875 25 
Q 14.984375 22.515625 14.984375 16.5 
Q 14.984375 11.71875 18.140625 8.90625 
Q 21.296875 6.109375 26.703125 6.109375 
Q 34.1875 6.109375 38.703125 11.40625 
Q 43.21875 16.703125 43.21875 25.484375 
L 43.21875 27.484375 
z
M 52.203125 31.203125 
L 52.203125 0 
L 43.21875 0 
L 43.21875 8.296875 
Q 40.140625 3.328125 35.546875 0.953125 
Q 30.953125 -1.421875 24.3125 -1.421875 
Q 15.921875 -1.421875 10.953125 3.296875 
Q 6 8.015625 6 15.921875 
Q 6 25.140625 12.171875 29.828125 
Q 18.359375 34.515625 30.609375 34.515625 
L 43.21875 34.515625 
L 43.21875 35.40625 
Q 43.21875 41.609375 39.140625 45 
Q 35.0625 48.390625 27.6875 48.390625 
Q 23 48.390625 18.546875 47.265625 
Q 14.109375 46.140625 10.015625 43.890625 
L 10.015625 52.203125 
Q 14.9375 54.109375 19.578125 55.046875 
Q 24.21875 56 28.609375 56 
Q 40.484375 56 46.34375 49.84375 
Q 52.203125 43.703125 52.203125 31.203125 
z
" id="DejaVuSans-97"/>
       <path d="M 9.421875 75.984375 
L 18.40625 75.984375 
L 18.40625 0 
L 9.421875 0 
z
" id="DejaVuSans-108"/>
       <path d="M 32.171875 -5.078125 
Q 28.375 -14.84375 24.75 -17.8125 
Q 21.140625 -20.796875 15.09375 -20.796875 
L 7.90625 -20.796875 
L 7.90625 -13.28125 
L 13.1875 -13.28125 
Q 16.890625 -13.28125 18.9375 -11.515625 
Q 21 -9.765625 23.484375 -3.21875 
L 25.09375 0.875 
L 2.984375 54.6875 
L 12.5 54.6875 
L 29.59375 11.921875 
L 46.6875 54.6875 
L 56.203125 54.6875 
z
" id="DejaVuSans-121"/>
       <path d="M 64.40625 67.28125 
L 64.40625 56.890625 
Q 59.421875 61.53125 53.78125 63.8125 
Q 48.140625 66.109375 41.796875 66.109375 
Q 29.296875 66.109375 22.65625 58.46875 
Q 16.015625 50.828125 16.015625 36.375 
Q 16.015625 21.96875 22.65625 14.328125 
Q 29.296875 6.6875 41.796875 6.6875 
Q 48.140625 6.6875 53.78125 8.984375 
Q 59.421875 11.28125 64.40625 15.921875 
L 64.40625 5.609375 
Q 59.234375 2.09375 53.4375 0.328125 
Q 47.65625 -1.421875 41.21875 -1.421875 
Q 24.65625 -1.421875 15.125 8.703125 
Q 5.609375 18.84375 5.609375 36.375 
Q 5.609375 53.953125 15.125 64.078125 
Q 24.65625 74.21875 41.21875 74.21875 
Q 47.75 74.21875 53.53125 72.484375 
Q 59.328125 70.75 64.40625 67.28125 
z
" id="DejaVuSans-67"/>
       <path d="M 45.40625 27.984375 
Q 45.40625 37.75 41.375 43.109375 
Q 37.359375 48.484375 30.078125 48.484375 
Q 22.859375 48.484375 18.828125 43.109375 
Q 14.796875 37.75 14.796875 27.984375 
Q 14.796875 18.265625 18.828125 12.890625 
Q 22.859375 7.515625 30.078125 7.515625 
Q 37.359375 7.515625 41.375 12.890625 
Q 45.40625 18.265625 45.40625 27.984375 
z
M 54.390625 6.78125 
Q 54.390625 -7.171875 48.1875 -13.984375 
Q 42 -20.796875 29.203125 -20.796875 
Q 24.46875 -20.796875 20.265625 -20.09375 
Q 16.0625 -19.390625 12.109375 -17.921875 
L 12.109375 -9.1875 
Q 16.0625 -11.328125 19.921875 -12.34375 
Q 23.78125 -13.375 27.78125 -13.375 
Q 36.625 -13.375 41.015625 -8.765625 
Q 45.40625 -4.15625 45.40625 5.171875 
L 45.40625 9.625 
Q 42.625 4.78125 38.28125 2.390625 
Q 33.9375 0 27.875 0 
Q 17.828125 0 11.671875 7.65625 
Q 5.515625 15.328125 5.515625 27.984375 
Q 5.515625 40.671875 11.671875 48.328125 
Q 17.828125 56 27.875 56 
Q 33.9375 56 38.28125 53.609375 
Q 42.625 51.21875 45.40625 46.390625 
L 45.40625 54.6875 
L 54.390625 54.6875 
z
" id="DejaVuSans-103"/>
      </defs>
      <use xlink:href="#DejaVuSans-84"/>
      <use x="44.583984" xlink:href="#DejaVuSans-97"/>
      <use x="105.863281" xlink:href="#DejaVuSans-110"/>
      <use x="169.242188" xlink:href="#DejaVuSans-105"/>
      <use x="197.025391" xlink:href="#DejaVuSans-109"/>
      <use x="294.4375" xlink:href="#DejaVuSans-111"/>
      <use x="355.619141" xlink:href="#DejaVuSans-116"/>
      <use x="394.828125" xlink:href="#DejaVuSans-111"/>
      <use x="456.009766" xlink:href="#DejaVuSans-32"/>
      <use x="487.796875" xlink:href="#DejaVuSans-83"/>
      <use x="551.273438" xlink:href="#DejaVuSans-105"/>
      <use x="579.056641" xlink:href="#DejaVuSans-109"/>
      <use x="676.46875" xlink:href="#DejaVuSans-105"/>
      <use x="704.251953" xlink:href="#DejaVuSans-108"/>
      <use x="732.035156" xlink:href="#DejaVuSans-97"/>
      <use x="793.314453" xlink:href="#DejaVuSans-114"/>
      <use x="834.427734" xlink:href="#DejaVuSans-105"/>
      <use x="862.210938" xlink:href="#DejaVuSans-116"/>
      <use x="901.419922" xlink:href="#DejaVuSans-121"/>
      <use x="960.599609" xlink:href="#DejaVuSans-32"/>
      <use x="992.386719" xlink:href="#DejaVuSans-116"/>
      <use x="1031.595703" xlink:href="#DejaVuSans-111"/>
      <use x="1092.777344" xlink:href="#DejaVuSans-32"/>
      <use x="1124.564453" xlink:href="#DejaVuSans-67"/>
      <use x="1194.388672" xlink:href="#DejaVuSans-108"/>
      <use x="1222.171875" xlink:href="#DejaVuSans-111"/>
      <use x="1283.353516" xlink:href="#DejaVuSans-115"/>
      <use x="1335.453125" xlink:href="#DejaVuSans-101"/>
      <use x="1396.976562" xlink:href="#DejaVuSans-115"/>
      <use x="1449.076172" xlink:href="#DejaVuSans-116"/>
      <use x="1488.285156" xlink:href="#DejaVuSans-32"/>
      <use x="1520.072266" xlink:href="#DejaVuSans-84"/>
      <use x="1566.40625" xlink:href="#DejaVuSans-114"/>
      <use x="1607.519531" xlink:href="#DejaVuSans-97"/>
      <use x="1668.798828" xlink:href="#DejaVuSans-105"/>
      <use x="1696.582031" xlink:href="#DejaVuSans-110"/>
      <use x="1759.960938" xlink:href="#DejaVuSans-105"/>
      <use x="1787.744141" xlink:href="#DejaVuSans-110"/>
      <use x="1851.123047" xlink:href="#DejaVuSans-103"/>
      <use x="1914.599609" xlink:href="#DejaVuSans-32"/>
      <use x="1946.386719" xlink:href="#DejaVuSans-72"/>
      <use x="2021.582031" xlink:href="#DejaVuSans-105"/>
      <use x="2049.365234" xlink:href="#DejaVuSans-116"/>
     </g>
    </g>
   </g>
   <g id="line2d_17">
    <path clip-path="url(#pa906a1136a)" d="M 87.595 229.372383 
L 87.595 285.679442 
" style="fill:none;stroke:#262626;stroke-linecap:square;stroke-width:1.5;"/>
   </g>
   <g id="line2d_18">
    <path clip-path="url(#pa906a1136a)" d="M 87.595 179.495384 
L 87.595 125.296415 
" style="fill:none;stroke:#262626;stroke-linecap:square;stroke-width:1.5;"/>
   </g>
   <g id="line2d_19">
    <path clip-path="url(#pa906a1136a)" d="M 71.477 285.679442 
L 103.713 285.679442 
" style="fill:none;stroke:#262626;stroke-linecap:square;stroke-width:1.5;"/>
   </g>
   <g id="line2d_20">
    <path clip-path="url(#pa906a1136a)" d="M 71.477 125.296415 
L 103.713 125.296415 
" style="fill:none;stroke:#262626;stroke-linecap:square;stroke-width:1.5;"/>
   </g>
   <g id="line2d_21">
    <defs>
     <path d="M -0 3.535534 
L 2.12132 0 
L -0 -3.535534 
L -2.12132 -0 
z
" id="mcb16573f77" style="stroke:#262626;stroke-linejoin:miter;"/>
    </defs>
    <g clip-path="url(#pa906a1136a)">
     <use style="fill:#262626;stroke:#262626;stroke-linejoin:miter;" x="87.595" xlink:href="#mcb16573f77" y="307.270447"/>
     <use style="fill:#262626;stroke:#262626;stroke-linejoin:miter;" x="87.595" xlink:href="#mcb16573f77" y="88.609311"/>
     <use style="fill:#262626;stroke:#262626;stroke-linejoin:miter;" x="87.595" xlink:href="#mcb16573f77" y="85.157437"/>
     <use style="fill:#262626;stroke:#262626;stroke-linejoin:miter;" x="87.595" xlink:href="#mcb16573f77" y="46.148242"/>
     <use style="fill:#262626;stroke:#262626;stroke-linejoin:miter;" x="87.595" xlink:href="#mcb16573f77" y="96.414964"/>
     <use style="fill:#262626;stroke:#262626;stroke-linejoin:miter;" x="87.595" xlink:href="#mcb16573f77" y="49.669294"/>
     <use style="fill:#262626;stroke:#262626;stroke-linejoin:miter;" x="87.595" xlink:href="#mcb16573f77" y="41.165143"/>
     <use style="fill:#262626;stroke:#262626;stroke-linejoin:miter;" x="87.595" xlink:href="#mcb16573f77" y="75.26186"/>
     <use style="fill:#262626;stroke:#262626;stroke-linejoin:miter;" x="87.595" xlink:href="#mcb16573f77" y="44.906733"/>
    </g>
   </g>
   <g id="line2d_22">
    <path clip-path="url(#pa906a1136a)" d="M 168.185 231.950958 
L 168.185 271.249528 
" style="fill:none;stroke:#262626;stroke-linecap:square;stroke-width:1.5;"/>
   </g>
   <g id="line2d_23">
    <path clip-path="url(#pa906a1136a)" d="M 168.185 173.102089 
L 168.185 88.336462 
" style="fill:none;stroke:#262626;stroke-linecap:square;stroke-width:1.5;"/>
   </g>
   <g id="line2d_24">
    <path clip-path="url(#pa906a1136a)" d="M 152.067 271.249528 
L 184.303 271.249528 
" style="fill:none;stroke:#262626;stroke-linecap:square;stroke-width:1.5;"/>
   </g>
   <g id="line2d_25">
    <path clip-path="url(#pa906a1136a)" d="M 152.067 88.336462 
L 184.303 88.336462 
" style="fill:none;stroke:#262626;stroke-linecap:square;stroke-width:1.5;"/>
   </g>
   <g id="line2d_26">
    <g clip-path="url(#pa906a1136a)">
     <use style="fill:#262626;stroke:#262626;stroke-linejoin:miter;" x="168.185" xlink:href="#mcb16573f77" y="73.538351"/>
     <use style="fill:#262626;stroke:#262626;stroke-linejoin:miter;" x="168.185" xlink:href="#mcb16573f77" y="60.007782"/>
     <use style="fill:#262626;stroke:#262626;stroke-linejoin:miter;" x="168.185" xlink:href="#mcb16573f77" y="64.880717"/>
    </g>
   </g>
   <g id="line2d_27">
    <path clip-path="url(#pa906a1136a)" d="M 248.775 235.789167 
L 248.775 271.620098 
" style="fill:none;stroke:#262626;stroke-linecap:square;stroke-width:1.5;"/>
   </g>
   <g id="line2d_28">
    <path clip-path="url(#pa906a1136a)" d="M 248.775 190.850421 
L 248.775 140.694362 
" style="fill:none;stroke:#262626;stroke-linecap:square;stroke-width:1.5;"/>
   </g>
   <g id="line2d_29">
    <path clip-path="url(#pa906a1136a)" d="M 232.657 271.620098 
L 264.893 271.620098 
" style="fill:none;stroke:#262626;stroke-linecap:square;stroke-width:1.5;"/>
   </g>
   <g id="line2d_30">
    <path clip-path="url(#pa906a1136a)" d="M 232.657 140.694362 
L 264.893 140.694362 
" style="fill:none;stroke:#262626;stroke-linecap:square;stroke-width:1.5;"/>
   </g>
   <g id="line2d_31">
    <g clip-path="url(#pa906a1136a)">
     <use style="fill:#262626;stroke:#262626;stroke-linejoin:miter;" x="248.775" xlink:href="#mcb16573f77" y="71.517863"/>
     <use style="fill:#262626;stroke:#262626;stroke-linejoin:miter;" x="248.775" xlink:href="#mcb16573f77" y="41.165143"/>
     <use style="fill:#262626;stroke:#262626;stroke-linejoin:miter;" x="248.775" xlink:href="#mcb16573f77" y="87.062393"/>
    </g>
   </g>
   <g id="line2d_32">
    <path clip-path="url(#pa906a1136a)" d="M 329.365 234.23838 
L 329.365 276.690107 
" style="fill:none;stroke:#262626;stroke-linecap:square;stroke-width:1.5;"/>
   </g>
   <g id="line2d_33">
    <path clip-path="url(#pa906a1136a)" d="M 329.365 187.238397 
L 329.365 130.233063 
" style="fill:none;stroke:#262626;stroke-linecap:square;stroke-width:1.5;"/>
   </g>
   <g id="line2d_34">
    <path clip-path="url(#pa906a1136a)" d="M 313.247 276.690107 
L 345.483 276.690107 
" style="fill:none;stroke:#262626;stroke-linecap:square;stroke-width:1.5;"/>
   </g>
   <g id="line2d_35">
    <path clip-path="url(#pa906a1136a)" d="M 313.247 130.233063 
L 345.483 130.233063 
" style="fill:none;stroke:#262626;stroke-linecap:square;stroke-width:1.5;"/>
   </g>
   <g id="line2d_36">
    <g clip-path="url(#pa906a1136a)">
     <use style="fill:#262626;stroke:#262626;stroke-linejoin:miter;" x="329.365" xlink:href="#mcb16573f77" y="115.471015"/>
    </g>
   </g>
   <g id="line2d_37">
    <path clip-path="url(#pa906a1136a)" d="M 409.955 232.116045 
L 409.955 277.078242 
" style="fill:none;stroke:#262626;stroke-linecap:square;stroke-width:1.5;"/>
   </g>
   <g id="line2d_38">
    <path clip-path="url(#pa906a1136a)" d="M 409.955 185.1528 
L 409.955 131.168649 
" style="fill:none;stroke:#262626;stroke-linecap:square;stroke-width:1.5;"/>
   </g>
   <g id="line2d_39">
    <path clip-path="url(#pa906a1136a)" d="M 393.837 277.078242 
L 426.073 277.078242 
" style="fill:none;stroke:#262626;stroke-linecap:square;stroke-width:1.5;"/>
   </g>
   <g id="line2d_40">
    <path clip-path="url(#pa906a1136a)" d="M 393.837 131.168649 
L 426.073 131.168649 
" style="fill:none;stroke:#262626;stroke-linecap:square;stroke-width:1.5;"/>
   </g>
   <g id="line2d_41">
    <g clip-path="url(#pa906a1136a)">
     <use style="fill:#262626;stroke:#262626;stroke-linejoin:miter;" x="409.955" xlink:href="#mcb16573f77" y="86.162517"/>
     <use style="fill:#262626;stroke:#262626;stroke-linejoin:miter;" x="409.955" xlink:href="#mcb16573f77" y="41.165143"/>
     <use style="fill:#262626;stroke:#262626;stroke-linejoin:miter;" x="409.955" xlink:href="#mcb16573f77" y="85.893161"/>
     <use style="fill:#262626;stroke:#262626;stroke-linejoin:miter;" x="409.955" xlink:href="#mcb16573f77" y="54.167993"/>
     <use style="fill:#262626;stroke:#262626;stroke-linejoin:miter;" x="409.955" xlink:href="#mcb16573f77" y="114.586964"/>
     <use style="fill:#262626;stroke:#262626;stroke-linejoin:miter;" x="409.955" xlink:href="#mcb16573f77" y="101.798"/>
     <use style="fill:#262626;stroke:#262626;stroke-linejoin:miter;" x="409.955" xlink:href="#mcb16573f77" y="41.165143"/>
     <use style="fill:#262626;stroke:#262626;stroke-linejoin:miter;" x="409.955" xlink:href="#mcb16573f77" y="79.985047"/>
     <use style="fill:#262626;stroke:#262626;stroke-linejoin:miter;" x="409.955" xlink:href="#mcb16573f77" y="64.070889"/>
     <use style="fill:#262626;stroke:#262626;stroke-linejoin:miter;" x="409.955" xlink:href="#mcb16573f77" y="41.165143"/>
    </g>
   </g>
   <g id="line2d_42">
    <path clip-path="url(#pa906a1136a)" d="M 490.545 232.624874 
L 490.545 264.058102 
" style="fill:none;stroke:#262626;stroke-linecap:square;stroke-width:1.5;"/>
   </g>
   <g id="line2d_43">
    <path clip-path="url(#pa906a1136a)" d="M 490.545 181.226937 
L 490.545 136.120964 
" style="fill:none;stroke:#262626;stroke-linecap:square;stroke-width:1.5;"/>
   </g>
   <g id="line2d_44">
    <path clip-path="url(#pa906a1136a)" d="M 474.427 264.058102 
L 506.663 264.058102 
" style="fill:none;stroke:#262626;stroke-linecap:square;stroke-width:1.5;"/>
   </g>
   <g id="line2d_45">
    <path clip-path="url(#pa906a1136a)" d="M 474.427 136.120964 
L 506.663 136.120964 
" style="fill:none;stroke:#262626;stroke-linecap:square;stroke-width:1.5;"/>
   </g>
   <g id="line2d_46">
    <g clip-path="url(#pa906a1136a)">
     <use style="fill:#262626;stroke:#262626;stroke-linejoin:miter;" x="490.545" xlink:href="#mcb16573f77" y="53.547436"/>
     <use style="fill:#262626;stroke:#262626;stroke-linejoin:miter;" x="490.545" xlink:href="#mcb16573f77" y="90.47758"/>
     <use style="fill:#262626;stroke:#262626;stroke-linejoin:miter;" x="490.545" xlink:href="#mcb16573f77" y="58.780584"/>
     <use style="fill:#262626;stroke:#262626;stroke-linejoin:miter;" x="490.545" xlink:href="#mcb16573f77" y="76.083596"/>
     <use style="fill:#262626;stroke:#262626;stroke-linejoin:miter;" x="490.545" xlink:href="#mcb16573f77" y="41.165143"/>
     <use style="fill:#262626;stroke:#262626;stroke-linejoin:miter;" x="490.545" xlink:href="#mcb16573f77" y="89.32842"/>
     <use style="fill:#262626;stroke:#262626;stroke-linejoin:miter;" x="490.545" xlink:href="#mcb16573f77" y="87.696865"/>
     <use style="fill:#262626;stroke:#262626;stroke-linejoin:miter;" x="490.545" xlink:href="#mcb16573f77" y="60.430174"/>
     <use style="fill:#262626;stroke:#262626;stroke-linejoin:miter;" x="490.545" xlink:href="#mcb16573f77" y="41.165143"/>
     <use style="fill:#262626;stroke:#262626;stroke-linejoin:miter;" x="490.545" xlink:href="#mcb16573f77" y="72.21038"/>
     <use style="fill:#262626;stroke:#262626;stroke-linejoin:miter;" x="490.545" xlink:href="#mcb16573f77" y="63.692347"/>
    </g>
   </g>
   <g id="line2d_47">
    <path clip-path="url(#pa906a1136a)" d="M 571.135 221.580919 
L 571.135 275.414043 
" style="fill:none;stroke:#262626;stroke-linecap:square;stroke-width:1.5;"/>
   </g>
   <g id="line2d_48">
    <path clip-path="url(#pa906a1136a)" d="M 571.135 162.323592 
L 571.135 75.549001 
" style="fill:none;stroke:#262626;stroke-linecap:square;stroke-width:1.5;"/>
   </g>
   <g id="line2d_49">
    <path clip-path="url(#pa906a1136a)" d="M 555.017 275.414043 
L 587.253 275.414043 
" style="fill:none;stroke:#262626;stroke-linecap:square;stroke-width:1.5;"/>
   </g>
   <g id="line2d_50">
    <path clip-path="url(#pa906a1136a)" d="M 555.017 75.549001 
L 587.253 75.549001 
" style="fill:none;stroke:#262626;stroke-linecap:square;stroke-width:1.5;"/>
   </g>
   <g id="line2d_51">
    <g clip-path="url(#pa906a1136a)">
     <use style="fill:#262626;stroke:#262626;stroke-linejoin:miter;" x="571.135" xlink:href="#mcb16573f77" y="41.165143"/>
     <use style="fill:#262626;stroke:#262626;stroke-linejoin:miter;" x="571.135" xlink:href="#mcb16573f77" y="41.165143"/>
     <use style="fill:#262626;stroke:#262626;stroke-linejoin:miter;" x="571.135" xlink:href="#mcb16573f77" y="41.165143"/>
     <use style="fill:#262626;stroke:#262626;stroke-linejoin:miter;" x="571.135" xlink:href="#mcb16573f77" y="41.165143"/>
     <use style="fill:#262626;stroke:#262626;stroke-linejoin:miter;" x="571.135" xlink:href="#mcb16573f77" y="41.165143"/>
     <use style="fill:#262626;stroke:#262626;stroke-linejoin:miter;" x="571.135" xlink:href="#mcb16573f77" y="55.288459"/>
     <use style="fill:#262626;stroke:#262626;stroke-linejoin:miter;" x="571.135" xlink:href="#mcb16573f77" y="41.165143"/>
     <use style="fill:#262626;stroke:#262626;stroke-linejoin:miter;" x="571.135" xlink:href="#mcb16573f77" y="41.165143"/>
     <use style="fill:#262626;stroke:#262626;stroke-linejoin:miter;" x="571.135" xlink:href="#mcb16573f77" y="49.144734"/>
     <use style="fill:#262626;stroke:#262626;stroke-linejoin:miter;" x="571.135" xlink:href="#mcb16573f77" y="62.658296"/>
    </g>
   </g>
   <g id="line2d_52">
    <path clip-path="url(#pa906a1136a)" d="M 651.725 233.852895 
L 651.725 285.53393 
" style="fill:none;stroke:#262626;stroke-linecap:square;stroke-width:1.5;"/>
   </g>
   <g id="line2d_53">
    <path clip-path="url(#pa906a1136a)" d="M 651.725 140.89368 
L 651.725 41.165143 
" style="fill:none;stroke:#262626;stroke-linecap:square;stroke-width:1.5;"/>
   </g>
   <g id="line2d_54">
    <path clip-path="url(#pa906a1136a)" d="M 635.607 285.53393 
L 667.843 285.53393 
" style="fill:none;stroke:#262626;stroke-linecap:square;stroke-width:1.5;"/>
   </g>
   <g id="line2d_55">
    <path clip-path="url(#pa906a1136a)" d="M 635.607 41.165143 
L 667.843 41.165143 
" style="fill:none;stroke:#262626;stroke-linecap:square;stroke-width:1.5;"/>
   </g>
   <g id="line2d_56"/>
   <g id="line2d_57">
    <path clip-path="url(#pa906a1136a)" d="M 732.315 221.737099 
L 732.315 346.068004 
" style="fill:none;stroke:#262626;stroke-linecap:square;stroke-width:1.5;"/>
   </g>
   <g id="line2d_58">
    <path clip-path="url(#pa906a1136a)" d="M 732.315 112.515505 
L 732.315 41.165143 
" style="fill:none;stroke:#262626;stroke-linecap:square;stroke-width:1.5;"/>
   </g>
   <g id="line2d_59">
    <path clip-path="url(#pa906a1136a)" d="M 716.197 346.068004 
L 748.433 346.068004 
" style="fill:none;stroke:#262626;stroke-linecap:square;stroke-width:1.5;"/>
   </g>
   <g id="line2d_60">
    <path clip-path="url(#pa906a1136a)" d="M 716.197 41.165143 
L 748.433 41.165143 
" style="fill:none;stroke:#262626;stroke-linecap:square;stroke-width:1.5;"/>
   </g>
   <g id="line2d_61"/>
   <g id="line2d_62">
    <path clip-path="url(#pa906a1136a)" d="M 812.905 157.990534 
L 812.905 254.009421 
" style="fill:none;stroke:#262626;stroke-linecap:square;stroke-width:1.5;"/>
   </g>
   <g id="line2d_63">
    <path clip-path="url(#pa906a1136a)" d="M 812.905 41.165143 
L 812.905 41.165143 
" style="fill:none;stroke:#262626;stroke-linecap:square;stroke-width:1.5;"/>
   </g>
   <g id="line2d_64">
    <path clip-path="url(#pa906a1136a)" d="M 796.787 254.009421 
L 829.023 254.009421 
" style="fill:none;stroke:#262626;stroke-linecap:square;stroke-width:1.5;"/>
   </g>
   <g id="line2d_65">
    <path clip-path="url(#pa906a1136a)" d="M 796.787 41.165143 
L 829.023 41.165143 
" style="fill:none;stroke:#262626;stroke-linecap:square;stroke-width:1.5;"/>
   </g>
   <g id="line2d_66"/>
   <g id="line2d_67">
    <path clip-path="url(#pa906a1136a)" d="M 55.359 206.242967 
L 119.831 206.242967 
" style="fill:none;stroke:#262626;stroke-linecap:square;stroke-width:1.5;"/>
   </g>
   <g id="line2d_68">
    <path clip-path="url(#pa906a1136a)" d="M 135.949 203.986016 
L 200.421 203.986016 
" style="fill:none;stroke:#262626;stroke-linecap:square;stroke-width:1.5;"/>
   </g>
   <g id="line2d_69">
    <path clip-path="url(#pa906a1136a)" d="M 216.539 210.294559 
L 281.011 210.294559 
" style="fill:none;stroke:#262626;stroke-linecap:square;stroke-width:1.5;"/>
   </g>
   <g id="line2d_70">
    <path clip-path="url(#pa906a1136a)" d="M 297.129 210.391653 
L 361.601 210.391653 
" style="fill:none;stroke:#262626;stroke-linecap:square;stroke-width:1.5;"/>
   </g>
   <g id="line2d_71">
    <path clip-path="url(#pa906a1136a)" d="M 377.719 216.535181 
L 442.191 216.535181 
" style="fill:none;stroke:#262626;stroke-linecap:square;stroke-width:1.5;"/>
   </g>
   <g id="line2d_72">
    <path clip-path="url(#pa906a1136a)" d="M 458.309 206.985486 
L 522.781 206.985486 
" style="fill:none;stroke:#262626;stroke-linecap:square;stroke-width:1.5;"/>
   </g>
   <g id="line2d_73">
    <path clip-path="url(#pa906a1136a)" d="M 538.899 201.211011 
L 603.371 201.211011 
" style="fill:none;stroke:#262626;stroke-linecap:square;stroke-width:1.5;"/>
   </g>
   <g id="line2d_74">
    <path clip-path="url(#pa906a1136a)" d="M 619.489 206.056739 
L 683.961 206.056739 
" style="fill:none;stroke:#262626;stroke-linecap:square;stroke-width:1.5;"/>
   </g>
   <g id="line2d_75">
    <path clip-path="url(#pa906a1136a)" d="M 700.079 180.548911 
L 764.551 180.548911 
" style="fill:none;stroke:#262626;stroke-linecap:square;stroke-width:1.5;"/>
   </g>
   <g id="line2d_76">
    <path clip-path="url(#pa906a1136a)" d="M 780.669 47.691699 
L 845.141 47.691699 
" style="fill:none;stroke:#262626;stroke-linecap:square;stroke-width:1.5;"/>
   </g>
   <g id="patch_13">
    <path d="M 47.3 361.313147 
L 47.3 25.92 
" style="fill:none;stroke:#000000;stroke-linecap:square;stroke-linejoin:miter;stroke-width:0.8;"/>
   </g>
   <g id="patch_14">
    <path d="M 47.3 361.313147 
L 853.2 361.313147 
" style="fill:none;stroke:#000000;stroke-linecap:square;stroke-linejoin:miter;stroke-width:0.8;"/>
   </g>
   <g id="text_19">
    <!-- Boxplot of Tanimoto Similarity by Hit Score Bins -->
    <g transform="translate(307.33375 19.92)scale(0.12 -0.12)">
     <defs>
      <path d="M 54.890625 54.6875 
L 35.109375 28.078125 
L 55.90625 0 
L 45.3125 0 
L 29.390625 21.484375 
L 13.484375 0 
L 2.875 0 
L 24.125 28.609375 
L 4.6875 54.6875 
L 15.28125 54.6875 
L 29.78125 35.203125 
L 44.28125 54.6875 
z
" id="DejaVuSans-120"/>
      <path d="M 18.109375 8.203125 
L 18.109375 -20.796875 
L 9.078125 -20.796875 
L 9.078125 54.6875 
L 18.109375 54.6875 
L 18.109375 46.390625 
Q 20.953125 51.265625 25.265625 53.625 
Q 29.59375 56 35.59375 56 
Q 45.5625 56 51.78125 48.09375 
Q 58.015625 40.1875 58.015625 27.296875 
Q 58.015625 14.40625 51.78125 6.484375 
Q 45.5625 -1.421875 35.59375 -1.421875 
Q 29.59375 -1.421875 25.265625 0.953125 
Q 20.953125 3.328125 18.109375 8.203125 
z
M 48.6875 27.296875 
Q 48.6875 37.203125 44.609375 42.84375 
Q 40.53125 48.484375 33.40625 48.484375 
Q 26.265625 48.484375 22.1875 42.84375 
Q 18.109375 37.203125 18.109375 27.296875 
Q 18.109375 17.390625 22.1875 11.75 
Q 26.265625 6.109375 33.40625 6.109375 
Q 40.53125 6.109375 44.609375 11.75 
Q 48.6875 17.390625 48.6875 27.296875 
z
" id="DejaVuSans-112"/>
      <path d="M 37.109375 75.984375 
L 37.109375 68.5 
L 28.515625 68.5 
Q 23.6875 68.5 21.796875 66.546875 
Q 19.921875 64.59375 19.921875 59.515625 
L 19.921875 54.6875 
L 34.71875 54.6875 
L 34.71875 47.703125 
L 19.921875 47.703125 
L 19.921875 0 
L 10.890625 0 
L 10.890625 47.703125 
L 2.296875 47.703125 
L 2.296875 54.6875 
L 10.890625 54.6875 
L 10.890625 58.5 
Q 10.890625 67.625 15.140625 71.796875 
Q 19.390625 75.984375 28.609375 75.984375 
z
" id="DejaVuSans-102"/>
      <path d="M 48.6875 27.296875 
Q 48.6875 37.203125 44.609375 42.84375 
Q 40.53125 48.484375 33.40625 48.484375 
Q 26.265625 48.484375 22.1875 42.84375 
Q 18.109375 37.203125 18.109375 27.296875 
Q 18.109375 17.390625 22.1875 11.75 
Q 26.265625 6.109375 33.40625 6.109375 
Q 40.53125 6.109375 44.609375 11.75 
Q 48.6875 17.390625 48.6875 27.296875 
z
M 18.109375 46.390625 
Q 20.953125 51.265625 25.265625 53.625 
Q 29.59375 56 35.59375 56 
Q 45.5625 56 51.78125 48.09375 
Q 58.015625 40.1875 58.015625 27.296875 
Q 58.015625 14.40625 51.78125 6.484375 
Q 45.5625 -1.421875 35.59375 -1.421875 
Q 29.59375 -1.421875 25.265625 0.953125 
Q 20.953125 3.328125 18.109375 8.203125 
L 18.109375 0 
L 9.078125 0 
L 9.078125 75.984375 
L 18.109375 75.984375 
z
" id="DejaVuSans-98"/>
     </defs>
     <use xlink:href="#DejaVuSans-66"/>
     <use x="68.603516" xlink:href="#DejaVuSans-111"/>
     <use x="126.660156" xlink:href="#DejaVuSans-120"/>
     <use x="185.839844" xlink:href="#DejaVuSans-112"/>
     <use x="249.316406" xlink:href="#DejaVuSans-108"/>
     <use x="277.099609" xlink:href="#DejaVuSans-111"/>
     <use x="338.28125" xlink:href="#DejaVuSans-116"/>
     <use x="377.490234" xlink:href="#DejaVuSans-32"/>
     <use x="409.277344" xlink:href="#DejaVuSans-111"/>
     <use x="470.458984" xlink:href="#DejaVuSans-102"/>
     <use x="505.664062" xlink:href="#DejaVuSans-32"/>
     <use x="537.451172" xlink:href="#DejaVuSans-84"/>
     <use x="582.035156" xlink:href="#DejaVuSans-97"/>
     <use x="643.314453" xlink:href="#DejaVuSans-110"/>
     <use x="706.693359" xlink:href="#DejaVuSans-105"/>
     <use x="734.476562" xlink:href="#DejaVuSans-109"/>
     <use x="831.888672" xlink:href="#DejaVuSans-111"/>
     <use x="893.070312" xlink:href="#DejaVuSans-116"/>
     <use x="932.279297" xlink:href="#DejaVuSans-111"/>
     <use x="993.460938" xlink:href="#DejaVuSans-32"/>
     <use x="1025.248047" xlink:href="#DejaVuSans-83"/>
     <use x="1088.724609" xlink:href="#DejaVuSans-105"/>
     <use x="1116.507812" xlink:href="#DejaVuSans-109"/>
     <use x="1213.919922" xlink:href="#DejaVuSans-105"/>
     <use x="1241.703125" xlink:href="#DejaVuSans-108"/>
     <use x="1269.486328" xlink:href="#DejaVuSans-97"/>
     <use x="1330.765625" xlink:href="#DejaVuSans-114"/>
     <use x="1371.878906" xlink:href="#DejaVuSans-105"/>
     <use x="1399.662109" xlink:href="#DejaVuSans-116"/>
     <use x="1438.871094" xlink:href="#DejaVuSans-121"/>
     <use x="1498.050781" xlink:href="#DejaVuSans-32"/>
     <use x="1529.837891" xlink:href="#DejaVuSans-98"/>
     <use x="1593.314453" xlink:href="#DejaVuSans-121"/>
     <use x="1652.494141" xlink:href="#DejaVuSans-32"/>
     <use x="1684.28125" xlink:href="#DejaVuSans-72"/>
     <use x="1759.476562" xlink:href="#DejaVuSans-105"/>
     <use x="1787.259766" xlink:href="#DejaVuSans-116"/>
     <use x="1826.46875" xlink:href="#DejaVuSans-32"/>
     <use x="1858.255859" xlink:href="#DejaVuSans-83"/>
     <use x="1921.732422" xlink:href="#DejaVuSans-99"/>
     <use x="1976.712891" xlink:href="#DejaVuSans-111"/>
     <use x="2037.894531" xlink:href="#DejaVuSans-114"/>
     <use x="2076.757812" xlink:href="#DejaVuSans-101"/>
     <use x="2138.28125" xlink:href="#DejaVuSans-32"/>
     <use x="2170.068359" xlink:href="#DejaVuSans-66"/>
     <use x="2238.671875" xlink:href="#DejaVuSans-105"/>
     <use x="2266.455078" xlink:href="#DejaVuSans-110"/>
     <use x="2329.833984" xlink:href="#DejaVuSans-115"/>
    </g>
   </g>
  </g>
 </g>
 <defs>
  <clipPath id="pa906a1136a">
   <rect height="335.393147" width="805.9" x="47.3" y="25.92"/>
  </clipPath>
 </defs>
</svg>
